<?xml version="1.0" encoding="UTF-8"?>
<!DOCTYPE svg PUBLIC "-//W3C//DTD SVG 1.1//EN" "http://www.w3.org/Graphics/SVG/1.1/DTD/svg11.dtd">
<svg version="1.1" xmlns="http://www.w3.org/2000/svg" xmlns:xlink="http://www.w3.org/1999/xlink" x="0" y="0" width="265.23" height="240.11" viewBox="0, 0, 265.23, 240.11">
  <g id="Layer_1">
    <path d="M213.471,88.167 L248.43,79.63 L158.19,193.447 z M16.679,77.042 L48.779,85.76 L102.276,189.981 z M130.862,9.348 C175.645,9.348 201.713,15.032 208.098,18.695 C203.828,21.146 190.739,24.498 169.147,26.45 L169.086,26.447 L169.007,26.463 C158.345,27.422 145.628,28.042 130.862,28.042 C86.079,28.042 60.011,22.359 53.624,18.695 C60.011,15.032 86.079,9.348 130.862,9.348 M217.875,30.385 L251.952,69.148 L215.318,78.094 z M137.237,95.412 L202.187,89.552 L135.772,216.031 z M127.89,95.295 L126.417,216.544 L60.148,87.44 z M46.908,75.565 L13.048,66.369 L43.98,30.42 z M55.949,70.559 L53.238,28.726 C57.679,30.437 63.666,31.906 71.424,33.217 C76.513,34.078 82.138,34.813 88.162,35.417 z M123.635,85.392 L61.623,78.202 L96.224,40.455 z M132.625,82.18 L104.879,36.694 C113.17,37.149 121.908,37.39 130.862,37.39 C141.203,37.39 151.258,37.071 160.663,36.466 z M204.373,79.97 L141.466,85.646 L170.026,39.081 z M206.5,67.969 L178.685,34.857 C182.79,34.374 186.685,33.828 190.301,33.217 C198.129,31.894 204.152,30.41 208.605,28.679 z M264.066,68.773 L218.175,16.571 C216.521,10.936 207.928,7.153 190.301,4.173 C174.382,1.483 153.273,-0 130.862,-0 C108.451,-0 87.342,1.483 71.424,4.173 C53.767,7.157 45.177,10.948 43.544,16.598 L1.13,65.889 C-0.306,67.559 -0.382,70.005 0.949,71.76 L127.116,238.232 C127.37,238.572 127.668,238.874 127.999,239.131 L128.007,239.138 L128.018,239.145 L128.02,239.147 L128.027,239.152 L128.034,239.159 L128.043,239.163 C128.174,239.264 128.309,239.355 128.45,239.439 L128.451,239.439 L128.46,239.446 L128.47,239.451 L128.477,239.456 L128.48,239.459 C129.181,239.873 129.993,240.106 130.84,240.11 L130.862,240.11 C131.529,240.11 132.173,239.969 132.761,239.707 L132.763,239.707 L132.774,239.702 L132.776,239.7 C133.196,239.512 133.587,239.261 133.936,238.959 L133.943,238.951 C134.162,238.759 134.364,238.546 134.545,238.314 L264.219,74.762 C265.622,72.991 265.558,70.47 264.066,68.773" fill="#000080" id="path69164"/>
  </g>
</svg>
