{"accessors" : [{"bufferView" : 0, "byteOffset" : 0, "componentType" : 5123, "count" : 13872, "type" : "SCALAR", "max" : [11626], "min" : [0]}, {"bufferView" : 1, "byteOffset" : 0, "componentType" : 5126, "count" : 11627, "type" : "VEC3", "max" : [0.5, 0.5, 0.75], "min" : [-0.5, -0.5, -0.75], "name" : "POSITION"}, {"bufferView" : 1, "byteOffset" : 12, "componentType" : 5126, "count" : 11627, "type" : "VEC3", "max" : [1.0000044107437134, 1.0000044107437134, 1.0000044107437134], "min" : [-1.0000044107437134, -1.0000044107437134, -1.0000044107437134], "name" : "NORMAL"}, {"bufferView" : 0, "byteOffset" : 27744, "componentType" : 5123, "count" : 288, "type" : "SCALAR", "max" : [241], "min" : [0]}, {"bufferView" : 2, "byteOffset" : 0, "componentType" : 5126, "count" : 242, "type" : "VEC3", "max" : [0.5, 1, 0.5], "min" : [-0.5, -1, -0.5], "name" : "POSITION"}, {"bufferView" : 2, "byteOffset" : 12, "componentType" : 5126, "count" : 242, "type" : "VEC3", "max" : [0.9922822117805481, 1.0000044107437134, 0.9922822117805481], "min" : [-0.9922822117805481, -1.0000044107437134, -0.9922822117805481], "name" : "NORMAL"}, {"bufferView" : 0, "byteOffset" : 28320, "componentType" : 5123, "count" : 288, "type" : "SCALAR", "max" : [241], "min" : [0]}, {"bufferView" : 3, "byteOffset" : 0, "componentType" : 5126, "count" : 242, "type" : "VEC3", "max" : [0.5, 1, 0.5], "min" : [-0.5, -1, -0.5], "name" : "POSITION"}, {"bufferView" : 3, "byteOffset" : 12, "componentType" : 5126, "count" : 242, "type" : "VEC3", "max" : [0.9922822117805481, 1.0000044107437134, 0.9922822117805481], "min" : [-0.9922822117805481, -1.0000044107437134, -0.9922822117805481], "name" : "NORMAL"}, {"bufferView" : 0, "byteOffset" : 28896, "componentType" : 5123, "count" : 36, "type" : "SCALAR", "max" : [29], "min" : [0]}, {"bufferView" : 4, "byteOffset" : 0, "componentType" : 5126, "count" : 30, "type" : "VEC3", "max" : [0.05000000074505806, 0.25, 0.4000000059604645], "min" : [-0.05000000074505806, -0.25, -0.4000000059604645], "name" : "POSITION"}, {"bufferView" : 4, "byteOffset" : 12, "componentType" : 5126, "count" : 30, "type" : "VEC3", "max" : [1.0000044107437134, 1.0000044107437134, 1.0000044107437134], "min" : [-1.0000044107437134, -1.0000044107437134, -1.0000044107437134], "name" : "NORMAL"}, {"bufferView" : 0, "byteOffset" : 28968, "componentType" : 5123, "count" : 36, "type" : "SCALAR", "max" : [29], "min" : [0]}, {"bufferView" : 5, "byteOffset" : 0, "componentType" : 5126, "count" : 30, "type" : "VEC3", "max" : [0.05000000074505806, 0.10000000149011612, 0.5], "min" : [-0.05000000074505806, -0.10000000149011612, -0.5], "name" : "POSITION"}, {"bufferView" : 5, "byteOffset" : 12, "componentType" : 5126, "count" : 30, "type" : "VEC3", "max" : [1.0000044107437134, 1.0000044107437134, 1.0000044107437134], "min" : [-1.0000044107437134, -1.0000044107437134, -1.0000044107437134], "name" : "NORMAL"}, {"bufferView" : 0, "byteOffset" : 29040, "componentType" : 5123, "count" : 36, "type" : "SCALAR", "max" : [29], "min" : [0]}, {"bufferView" : 6, "byteOffset" : 0, "componentType" : 5126, "count" : 30, "type" : "VEC3", "max" : [0.05000000074505806, 0.10000000149011612, 0.4000000059604645], "min" : [-0.05000000074505806, -0.10000000149011612, -0.4000000059604645], "name" : "POSITION"}, {"bufferView" : 6, "byteOffset" : 12, "componentType" : 5126, "count" : 30, "type" : "VEC3", "max" : [1.0000044107437134, 1.0000044107437134, 1.0000044107437134], "min" : [-1.0000044107437134, -1.0000044107437134, -1.0000044107437134], "name" : "NORMAL"}, {"bufferView" : 0, "byteOffset" : 29112, "componentType" : 5123, "count" : 13872, "type" : "SCALAR", "max" : [11626], "min" : [0]}, {"bufferView" : 7, "byteOffset" : 0, "componentType" : 5126, "count" : 11627, "type" : "VEC3", "max" : [0.25, 0.25, 0.25], "min" : [-0.25, -0.25, -0.25], "name" : "POSITION"}, {"bufferView" : 7, "byteOffset" : 12, "componentType" : 5126, "count" : 11627, "type" : "VEC3", "max" : [1.0000044107437134, 1.0000044107437134, 1.0000044107437134], "min" : [-1.0000044107437134, -1.0000044107437134, -1.0000044107437134], "name" : "NORMAL"}, {"bufferView" : 0, "byteOffset" : 56856, "componentType" : 5123, "count" : 13872, "type" : "SCALAR", "max" : [11626], "min" : [0]}, {"bufferView" : 8, "byteOffset" : 0, "componentType" : 5126, "count" : 11627, "type" : "VEC3", "max" : [0.25, 0.25, 0.25], "min" : [-0.25, -0.25, -0.25], "name" : "POSITION"}, {"bufferView" : 8, "byteOffset" : 12, "componentType" : 5126, "count" : 11627, "type" : "VEC3", "max" : [1.0000044107437134, 1.0000044107437134, 1.0000044107437134], "min" : [-1.0000044107437134, -1.0000044107437134, -1.0000044107437134], "name" : "NORMAL"}, {"bufferView" : 0, "byteOffset" : 84600, "componentType" : 5123, "count" : 13872, "type" : "SCALAR", "max" : [11626], "min" : [0]}, {"bufferView" : 9, "byteOffset" : 0, "componentType" : 5126, "count" : 11627, "type" : "VEC3", "max" : [0.20000000298023224, 0.20000000298023224, 0.20000000298023224], "min" : [-0.20000000298023224, -0.20000000298023224, -0.20000000298023224], "name" : "POSITION"}, {"bufferView" : 9, "byteOffset" : 12, "componentType" : 5126, "count" : 11627, "type" : "VEC3", "max" : [1.0000044107437134, 1.0000044107437134, 1.0000044107437134], "min" : [-1.0000044107437134, -1.0000044107437134, -1.0000044107437134], "name" : "NORMAL"}, {"bufferView" : 0, "byteOffset" : 112344, "componentType" : 5123, "count" : 13872, "type" : "SCALAR", "max" : [11626], "min" : [0]}, {"bufferView" : 10, "byteOffset" : 0, "componentType" : 5126, "count" : 11627, "type" : "VEC3", "max" : [0.20000000298023224, 0.20000000298023224, 0.20000000298023224], "min" : [-0.20000000298023224, -0.20000000298023224, -0.20000000298023224], "name" : "POSITION"}, {"bufferView" : 10, "byteOffset" : 12, "componentType" : 5126, "count" : 11627, "type" : "VEC3", "max" : [1.0000044107437134, 1.0000044107437134, 1.0000044107437134], "min" : [-1.0000044107437134, -1.0000044107437134, -1.0000044107437134], "name" : "NORMAL"}, {"bufferView" : 0, "byteOffset" : 140088, "componentType" : 5123, "count" : 26640, "type" : "SCALAR", "max" : [22331], "min" : [0]}, {"bufferView" : 11, "byteOffset" : 0, "componentType" : 5126, "count" : 22332, "type" : "VEC3", "max" : [0.41901296377182007, -0.2838658392429352, 0.019999999552965164], "min" : [-0.4111843705177307, -0.5199593901634216, -0.019999999552965164], "name" : "POSITION"}, {"bufferView" : 11, "byteOffset" : 12, "componentType" : 5126, "count" : 22332, "type" : "VEC3", "max" : [0.7984288930892944, 0.9999262690544128, 1.0000044107437134], "min" : [-0.7985790371894836, -0.9999262690544128, -1.0000044107437134], "name" : "NORMAL"}], "asset" : {"generator" : "Aspose.3D 22.7", "version" : "2.0"}, "buffers" : [{"uri" : "data:application/octet-stream;base64,", "byteLength" : 2513832}], "bufferViews" : [{"buffer" : 0, "byteOffset" : 0, "byteLength" : 193368, "target" : 34963}, {"buffer" : 0, "byteOffset" : 193372, "byteLength" : 332928, "byteStride" : 24, "target" : 34962}, {"buffer" : 0, "byteOffset" : 526304, "byteLength" : 6912, "byteStride" : 24, "target" : 34962}, {"buffer" : 0, "byteOffset" : 533220, "byteLength" : 6912, "byteStride" : 24, "target" : 34962}, {"buffer" : 0, "byteOffset" : 540136, "byteLength" : 864, "byteStride" : 24, "target" : 34962}, {"buffer" : 0, "byteOffset" : 541004, "byteLength" : 864, "byteStride" : 24, "target" : 34962}, {"buffer" : 0, "byteOffset" : 541872, "byteLength" : 864, "byteStride" : 24, "target" : 34962}, {"buffer" : 0, "byteOffset" : 542740, "byteLength" : 332928, "byteStride" : 24, "target" : 34962}, {"buffer" : 0, "byteOffset" : 875672, "byteLength" : 332928, "byteStride" : 24, "target" : 34962}, {"buffer" : 0, "byteOffset" : 1208604, "byteLength" : 332928, "byteStride" : 24, "target" : 34962}, {"buffer" : 0, "byteOffset" : 1541536, "byteLength" : 332928, "byteStride" : 24, "target" : 34962}, {"buffer" : 0, "byteOffset" : 1874468, "byteLength" : 639360, "byteStride" : 24, "target" : 34962}], "materials" : [{"name" : "puffy_material", "pbrMetallicRoughness" : {"baseColorFactor" : [0, 0.22813172919823518, 0.30603279993281185, 1], "metallicFactor" : 0, "roughnessFactor" : 0.3288090062081349}, "emissiveFactor" : [0, 0, 0], "alphaMode" : "OPAQUE", "doubleSided" : false}, {"name" : "right_horn_material", "pbrMetallicRoughness" : {"baseColorFactor" : [0.5, 0, 0, 1], "metallicFactor" : 0, "roughnessFactor" : 0.3288090062081349}, "emissiveFactor" : [0, 0, 0], "alphaMode" : "OPAQUE", "doubleSided" : false}, {"name" : "left_horn_material", "pbrMetallicRoughness" : {"baseColorFactor" : [0.5, 0, 0, 1], "metallicFactor" : 0, "roughnessFactor" : 0.3288090062081349}, "emissiveFactor" : [0, 0, 0], "alphaMode" : "OPAQUE", "doubleSided" : false}, {"name" : "back_material", "pbrMetallicRoughness" : {"baseColorFactor" : [0, 0.5, 0.5, 1], "metallicFactor" : 0, "roughnessFactor" : 0.3288090062081349}, "emissiveFactor" : [0, 0, 0], "alphaMode" : "OPAQUE", "doubleSided" : false}, {"name" : "upper_tail_material", "pbrMetallicRoughness" : {"baseColorFactor" : [0, 0.12889506087151573, 0.3965550867561956, 1], "metallicFactor" : 0, "roughnessFactor" : 0.3288090062081349}, "emissiveFactor" : [0, 0, 0], "alphaMode" : "OPAQUE", "doubleSided" : false}, {"name" : "lower_tail_material", "pbrMetallicRoughness" : {"baseColorFactor" : [0, 0.12889506087151573, 0.3965550867561956, 1], "metallicFactor" : 0, "roughnessFactor" : 0.3288090062081349}, "emissiveFactor" : [0, 0, 0], "alphaMode" : "OPAQUE", "doubleSided" : false}, {"name" : "left_eye_material", "pbrMetallicRoughness" : {"baseColorFactor" : [0, 0, 0, 1], "metallicFactor" : 0, "roughnessFactor" : 0.3288090062081349}, "emissiveFactor" : [0, 0, 0], "alphaMode" : "OPAQUE", "doubleSided" : false}, {"name" : "right_eye_material", "pbrMetallicRoughness" : {"baseColorFactor" : [0, 0, 0, 1], "metallicFactor" : 0, "roughnessFactor" : 0.3288090062081349}, "emissiveFactor" : [0, 0, 0], "alphaMode" : "OPAQUE", "doubleSided" : false}, {"name" : "left_cheeck_material", "pbrMetallicRoughness" : {"baseColorFactor" : [0.47826364658176673, 0.11862530999095122, 0.29767996446816447, 1], "metallicFactor" : 0, "roughnessFactor" : 0.3288090062081349}, "emissiveFactor" : [0, 0, 0], "alphaMode" : "OPAQUE", "doubleSided" : false}, {"name" : "right_cheeck_material", "pbrMetallicRoughness" : {"baseColorFactor" : [0.47826364658176673, 0.11862530999095122, 0.29767996446816447, 1], "metallicFactor" : 0, "roughnessFactor" : 0.3288090062081349}, "emissiveFactor" : [0, 0, 0], "alphaMode" : "OPAQUE", "doubleSided" : false}, {"name" : "mouth_material", "pbrMetallicRoughness" : {"baseColorFactor" : [0, 0, 0, 1], "metallicFactor" : 0, "roughnessFactor" : 0.3288090062081349}, "emissiveFactor" : [0, 0, 0], "alphaMode" : "OPAQUE", "doubleSided" : false}], "meshes" : [{"primitives" : [{"attributes" : {"POSITION" : 1, "NORMAL" : 2}, "indices" : 0, "material" : 0, "mode" : 4}]}, {"primitives" : [{"attributes" : {"POSITION" : 4, "NORMAL" : 5}, "indices" : 3, "material" : 1, "mode" : 4}]}, {"primitives" : [{"attributes" : {"POSITION" : 7, "NORMAL" : 8}, "indices" : 6, "material" : 2, "mode" : 4}]}, {"primitives" : [{"attributes" : {"POSITION" : 10, "NORMAL" : 11}, "indices" : 9, "material" : 3, "mode" : 4}]}, {"primitives" : [{"attributes" : {"POSITION" : 13, "NORMAL" : 14}, "indices" : 12, "material" : 4, "mode" : 4}]}, {"primitives" : [{"attributes" : {"POSITION" : 16, "NORMAL" : 17}, "indices" : 15, "material" : 5, "mode" : 4}]}, {"primitives" : [{"attributes" : {"POSITION" : 19, "NORMAL" : 20}, "indices" : 18, "material" : 6, "mode" : 4}]}, {"primitives" : [{"attributes" : {"POSITION" : 22, "NORMAL" : 23}, "indices" : 21, "material" : 7, "mode" : 4}]}, {"primitives" : [{"attributes" : {"POSITION" : 25, "NORMAL" : 26}, "indices" : 24, "material" : 8, "mode" : 4}]}, {"primitives" : [{"attributes" : {"POSITION" : 28, "NORMAL" : 29}, "indices" : 27, "material" : 9, "mode" : 4}]}, {"primitives" : [{"attributes" : {"POSITION" : 31, "NORMAL" : 32}, "indices" : 30, "material" : 10, "mode" : 4}]}], "nodes" : [{"matrix" : [0.1945289102390806, -0.045623721997673165, 0.008773771838540457, 0, 0.04515574871589341, 0.17678181139243032, -0.08190939823193853, 0, 0.010929841677847945, 0.08164966106414795, 0.18224673223135426, 0, 0.3, 0.55, -0.3, 1], "mesh" : 1, "name" : "right_horn"}, {"matrix" : [0.1945289102390806, 0.045623721997673165, -0.008773771838540457, 0, -0.04515574871589341, 0.17678181139243032, -0.08190939823193853, 0, -0.010929841677847945, 0.08164966106414795, 0.18224673223135426, 0, -0.3, 0.55, -0.3, 1], "mesh" : 2, "name" : "left_horn"}, {"matrix" : [1, 0, 0, 0, 0, 0.9354143489804759, -0.3535533845424653, 0, 0, 0.3535533845424653, 0.9354143489804759, 0, 0, 0.3, 0.1, 1], "mesh" : 3, "name" : "back"}, {"matrix" : [1, 0, 0, 0, 0, 0.9354143489804759, -0.3535533845424653, 0, 0, 0.3535533845424653, 0.9354143489804759, 0, 0, 0, 0.7, 1], "mesh" : 4, "name" : "upper_tail"}, {"matrix" : [1, 0, 0, 0, 0, 0.9354143489804759, 0.3535533845424653, 0, 0, -0.3535533845424653, 0.9354143489804759, 0, 0, 0, 0.7, 1], "mesh" : 5, "name" : "lower_tail"}, {"matrix" : [0.2, 0, 0, 0, 0, 0.2, 0, 0, 0, 0, 0.2, 0, 0.2, 0.25, -0.55, 1], "mesh" : 6, "name" : "puffy"}, {"matrix" : [0.2, 0, 0, 0, 0, 0.2, 0, 0, 0, 0, 0.2, 0, -0.2, 0.25, -0.55, 1], "mesh" : 7, "name" : "puffy"}, {"matrix" : [0.2, 0, 0, 0, 0, 0.2, 0, 0, 0, 0, 0.2, 0, 0.3, 0.15, -0.55, 1], "mesh" : 8, "name" : "puffy"}, {"matrix" : [0.2, 0, 0, 0, 0, 0.2, 0, 0, 0, 0, 0.2, 0, -0.3, 0.15, -0.55, 1], "mesh" : 9, "name" : "puffy"}, {"matrix" : [0.2, 0, 0, 0, 0, 0.2, 0, 0, 0, 0, 0.2, 0, 0, 0.15, -0.75, 1], "mesh" : 10, "name" : "tube"}, {"children" : [0, 1, 2, 3, 4, 5, 6, 7, 8, 9], "matrix" : [-1, 0, 0, 0, 0, 1, 0, 0, 0, 0, -1, 0, 0, 1, 0, 1], "mesh" : 0, "name" : "puffy"}], "scene" : 0, "scenes" : [{"nodes" : [10]}]}